<svg width="20" height="20" viewBox="0 0 20 20" fill="none" xmlns="http://www.w3.org/2000/svg">
<g clip-path="url(#clip0_191_13364)">
<path d="M20.001 10.2217C20.0131 9.53428 19.9407 8.84788 19.7853 8.17737H10.2051V11.8884H15.8286C15.7221 12.5391 15.4823 13.162 15.1238 13.7195C14.7653 14.2771 14.2955 14.7578 13.7425 15.1328L13.7229 15.2571L16.7522 17.5568L16.9619 17.5774C18.8892 15.8329 20.0006 13.2661 20.0006 10.2217" fill="#4285F4"/>
<path d="M10.2035 19.9999C12.9585 19.9999 15.2715 19.111 16.961 17.5777L13.741 15.1331C12.8793 15.7221 11.7229 16.1333 10.2035 16.1333C8.91317 16.1259 7.65795 15.7205 6.61596 14.9745C5.57397 14.2286 4.79812 13.1801 4.39848 11.9777L4.2789 11.9877L1.12906 14.3765L1.08789 14.4887C1.93622 16.1456 3.23812 17.5386 4.84802 18.5118C6.45791 19.4851 8.31234 20.0004 10.2039 19.9999" fill="#34A853"/>
<path d="M4.39899 11.9777C4.1758 11.3411 4.06063 10.673 4.05807 9.99996C4.06218 9.32799 4.1731 8.66075 4.38684 8.02225L4.38115 7.88968L1.19269 5.4624L1.0884 5.51101C0.372763 6.90343 0 8.4408 0 9.99987C0 11.5589 0.372763 13.0963 1.0884 14.4887L4.39899 11.9777Z" fill="#FBBC05"/>
<path d="M10.2039 3.86663C11.6661 3.84438 13.0802 4.37803 14.1495 5.35558L17.0294 2.59996C15.1823 0.901848 12.7364 -0.0298855 10.2039 -3.6784e-05C8.31236 -0.000477834 6.45795 0.514732 4.84805 1.48798C3.23816 2.46124 1.93625 3.85416 1.08789 5.51101L4.3875 8.02225C4.79107 6.82005 5.5695 5.77231 6.61303 5.02675C7.65655 4.28118 8.91255 3.87541 10.2039 3.86663Z" fill="#EB4335"/>
</g>
<defs>
<clipPath id="clip0_191_13364">
<rect width="20" height="20" fill="white"/>
</clipPath>
</defs>
</svg>
